# xmcd
#
# Track frame offsets: 
#        150
#        10521
#        30715
#        48735
#        66431
#        77323
#        92865
#        106416
#        118814
#        131613
#
# Disc length: 1968 seconds
#
# Revision: 0
# Processed by: cddbd v1.5.2PL0 Copyright (c) Steve Scherf et al.
# Submitted via: ExactAudioCopy v0.90b4
#
DISCID=7f07ae0a
DTITLE=Aretha Franklin - Forever
DYEAR=2007
DGENRE=Soul
TTITLE0=Think
TTITLE1=Angel
TTITLE2=Day Dreaming
TTITLE3=Call Me
TTITLE4=Since You've Been Gone
TTITLE5=Until You Come Back To Me
TTITLE6=Don't Play That Song
TTITLE7=See Saw
TTITLE8=I'm In Love
TTITLE9=You're All I Need To Get By
EXTD=
EXTT0=
EXTT1=
EXTT2=
EXTT3=
EXTT4=
EXTT5=
EXTT6=
EXTT7=
EXTT8=
EXTT9=
PLAYORDER=
